# xmcd CD database file
#
# Track frame offsets:
#	150
#	12337
#	19215
#	45277
#	84463
#	125843
#	180684
#	184732
#	212159
#	256297
#	300277
#
# Disc length: 4469 seconds
#
# Revision: 0
# Processed by: cddbd v1.5.2PL0 Copyright (c) Steve Scherf et al.
# Submitted via: CDex 1.79
#
DISCID=8a11730b
DTITLE=Roberto Zechini Limanaquequa - Bruto
DYEAR=2008
DGENRE=Jazz
TTITLE0=Solo Per Molti (corridoio R.E.M.)
TTITLE1=Istiqath
TTITLE2=Oturb (Bruto di spalle)
TTITLE3=Euforia sospetta
TTITLE4=Come la zucchero con il limone
TTITLE5=Bruto
TTITLE6=Seconda Amalassunta
TTITLE7=Il Mentecatto
TTITLE8=Arabat a Rabat (Rachid K.)
TTITLE9=Ca'
TTITLE10=Gandalf
EXTD=YEAR: 2008
EXTT0=
EXTT1=
EXTT2=
EXTT3=
EXTT4=
EXTT5=
EXTT6=
EXTT7=
EXTT8=
EXTT9=
EXTT10=
PLAYORDER=
